<svg xmlns="http://www.w3.org/2000/svg" width="548.176" height="548.176"><path  fill="#ff6b08" d="M534.75 49.965c-8.945-8.946-19.694-13.418-32.261-13.418H45.681c-12.562 0-23.313 4.473-32.264 13.418C4.471 58.916 0 69.667 0 82.229v383.72c0 12.562 4.471 23.315 13.417 32.265 8.951 8.945 19.702 13.415 32.264 13.415h456.815c12.56 0 23.312-4.47 32.258-13.415 8.945-8.949 13.422-19.702 13.422-32.265V82.229c0-12.562-4.477-23.313-13.426-32.264zm-425.116 406.85c0 4.948-1.804 9.233-5.421 12.847-3.616 3.617-7.898 5.428-12.85 5.428H54.821c-4.948 0-9.234-1.811-12.85-5.428-3.614-3.613-5.426-7.898-5.426-12.847V420.27c0-4.948 1.812-9.233 5.426-12.851 3.616-3.613 7.902-5.424 12.85-5.424H91.36c4.952 0 9.234 1.811 12.85 5.424 3.617 3.617 5.424 7.902 5.424 12.851v36.545zm0-109.638c0 4.948-1.804 9.236-5.421 12.847-3.616 3.613-7.898 5.428-12.85 5.428H54.821c-4.948 0-9.234-1.814-12.85-5.428-3.614-3.61-5.426-7.898-5.426-12.847v-36.549c0-4.948 1.812-9.229 5.426-12.847 3.616-3.614 7.902-5.424 12.85-5.424H91.36c4.952 0 9.234 1.81 12.85 5.424 3.617 3.617 5.424 7.898 5.424 12.847v36.549zm0-109.635c0 4.952-1.804 9.235-5.421 12.85-3.616 3.617-7.898 5.426-12.85 5.426H54.821c-4.948 0-9.234-1.809-12.85-5.426-3.614-3.615-5.426-7.898-5.426-12.85V201c0-4.952 1.812-9.235 5.426-12.85 3.616-3.617 7.902-5.426 12.85-5.426H91.36c4.952 0 9.234 1.809 12.85 5.426 3.617 3.619 5.424 7.902 5.424 12.85v36.542zm0-109.63c0 4.948-1.804 9.232-5.421 12.85-3.616 3.615-7.898 5.424-12.85 5.424H54.821c-4.948 0-9.234-1.809-12.85-5.424-3.614-3.621-5.426-7.898-5.426-12.85V91.368c0-4.952 1.812-9.233 5.426-12.85 3.616-3.616 7.902-5.424 12.85-5.424H91.36c4.952 0 9.234 1.809 12.85 5.424 3.617 3.621 5.424 7.902 5.424 12.85v36.544zm292.36 328.903c0 4.948-1.807 9.233-5.424 12.847-3.617 3.617-7.902 5.428-12.851 5.428H164.452c-4.949 0-9.229-1.811-12.847-5.428-3.615-3.613-5.424-7.898-5.424-12.847v-146.18c0-4.941 1.809-9.229 5.424-12.847 3.618-3.614 7.898-5.425 12.847-5.425H383.72c4.948 0 9.233 1.811 12.851 5.425 3.617 3.617 5.424 7.905 5.424 12.847v146.18h-.001zm0-219.273c0 4.952-1.807 9.235-5.424 12.85-3.617 3.617-7.902 5.426-12.851 5.426H164.452c-4.949 0-9.229-1.809-12.847-5.426-3.615-3.615-5.424-7.898-5.424-12.85V91.365c0-4.952 1.809-9.233 5.424-12.85 3.618-3.615 7.898-5.424 12.847-5.424H383.72c4.948 0 9.233 1.809 12.851 5.424 3.617 3.621 5.424 7.902 5.424 12.85v146.177h-.001zm109.633 219.273c0 4.948-1.807 9.233-5.421 12.847-3.621 3.617-7.905 5.428-12.854 5.428H456.81c-4.948 0-9.236-1.811-12.847-5.428-3.621-3.613-5.428-7.898-5.428-12.847V420.27c0-4.948 1.807-9.233 5.428-12.851 3.61-3.613 7.898-5.424 12.847-5.424h36.542c4.948 0 9.232 1.811 12.854 5.424 3.614 3.617 5.421 7.902 5.421 12.851v36.545zm0-109.638c0 4.948-1.807 9.236-5.421 12.847-3.621 3.613-7.905 5.428-12.854 5.428H456.81c-4.948 0-9.236-1.814-12.847-5.428-3.621-3.61-5.428-7.898-5.428-12.847v-36.549c0-4.948 1.807-9.229 5.428-12.847 3.61-3.614 7.898-5.424 12.847-5.424h36.542c4.948 0 9.232 1.81 12.854 5.424 3.614 3.617 5.421 7.898 5.421 12.847v36.549zm0-109.635c0 4.952-1.807 9.235-5.421 12.85-3.621 3.617-7.905 5.426-12.854 5.426H456.81c-4.948 0-9.236-1.809-12.847-5.426-3.621-3.615-5.428-7.898-5.428-12.85V201c0-4.952 1.807-9.235 5.428-12.85 3.61-3.617 7.898-5.426 12.847-5.426h36.542c4.948 0 9.232 1.809 12.854 5.426 3.614 3.619 5.421 7.902 5.421 12.85v36.542zm0-109.63c0 4.948-1.807 9.229-5.421 12.85-3.621 3.615-7.905 5.424-12.854 5.424H456.81c-4.948 0-9.236-1.805-12.847-5.424-3.621-3.621-5.428-7.898-5.428-12.85V91.368c0-4.952 1.807-9.233 5.428-12.85 3.61-3.616 7.898-5.424 12.847-5.424h36.542c4.948 0 9.232 1.809 12.854 5.424 3.614 3.621 5.421 7.902 5.421 12.85v36.544z"/></svg>