<svg aria-hidden="true" style="position: absolute; width: 0; height: 0; overflow: hidden;" version="1.1" xmlns="http://www.w3.org/2000/svg" xmlns:xlink="http://www.w3.org/1999/xlink">
<defs>

<symbol id="icon-heart" viewBox="0 0 34 32">
<path d="M17.231 31.705l-2.412-2.412c-8.96-7.926-14.818-13.268-14.818-19.815 0-5.342 4.135-9.477 9.477-9.477 2.929 0 5.858 1.378 7.754 3.618 1.895-2.24 4.825-3.618 7.754-3.618 5.342 0 9.477 4.135 9.477 9.477 0 6.548-5.858 11.889-14.818 19.815l-2.412 2.412z"></path>
</symbol>

<symbol id="icon-close-icon" viewBox="0 0 32 32">
<path d="M32 3.223l-3.223-3.223-12.777 12.777-12.777-12.777-3.223 3.223 12.777 12.777-12.777 12.777 3.223 3.223 12.777-12.777 12.777 12.777 3.223-3.223-12.777-12.777 12.777-12.777z"></path>
</symbol>

<symbol id="icon-film" viewBox="0 0 32 32">
<path fill="none" stroke="#818181" style="stroke: var(--color1, #818181)" stroke-linejoin="round" stroke-linecap="round" stroke-miterlimit="4" stroke-width="2.6667" d="M26.427 2.667h-20.853c-1.605 0-2.907 1.301-2.907 2.907v20.853c0 1.605 1.301 2.907 2.907 2.907h20.853c1.605 0 2.907-1.301 2.907-2.907v-20.853c0-1.605-1.301-2.907-2.907-2.907z"></path>
<path fill="none" stroke="#818181" style="stroke: var(--color1, #818181)" stroke-linejoin="round" stroke-linecap="round" stroke-miterlimit="4" stroke-width="2.6667" d="M9.333 2.667v26.667"></path>
<path fill="none" stroke="#818181" style="stroke: var(--color1, #818181)" stroke-linejoin="round" stroke-linecap="round" stroke-miterlimit="4" stroke-width="2.6667" d="M22.667 2.667v26.667"></path>
<path fill="none" stroke="#818181" style="stroke: var(--color1, #818181)" stroke-linejoin="round" stroke-linecap="round" stroke-miterlimit="4" stroke-width="2.6667" d="M2.667 16h26.667"></path>
<path fill="none" stroke="#818181" style="stroke: var(--color1, #818181)" stroke-linejoin="round" stroke-linecap="round" stroke-miterlimit="4" stroke-width="2.6667" d="M2.667 9.333h6.667"></path>
<path fill="none" stroke="#818181" style="stroke: var(--color1, #818181)" stroke-linejoin="round" stroke-linecap="round" stroke-miterlimit="4" stroke-width="2.6667" d="M2.667 22.667h6.667"></path>
<path fill="none" stroke="#818181" style="stroke: var(--color1, #818181)" stroke-linejoin="round" stroke-linecap="round" stroke-miterlimit="4" stroke-width="2.6667" d="M22.667 22.667h6.667"></path>
<path fill="none" stroke="#818181" style="stroke: var(--color1, #818181)" stroke-linejoin="round" stroke-linecap="round" stroke-miterlimit="4" stroke-width="2.6667" d="M22.667 9.333h6.667"></path>
</symbol>

<symbol id="icon-search-2" viewBox="0 0 35 32">
<path fill="none" stroke="#fff" style="stroke: var(--color1, #fff)" stroke-linejoin="round" stroke-linecap="round" stroke-miterlimit="4" stroke-width="2.6667" d="M15.889 25.333c6.382 0 11.556-4.776 11.556-10.667s-5.174-10.667-11.556-10.667c-6.382 0-11.556 4.776-11.556 10.667s5.174 10.667 11.556 10.667z"></path>
<path fill="none" stroke="#fff" style="stroke: var(--color1, #fff)" stroke-linejoin="round" stroke-linecap="round" stroke-miterlimit="4" stroke-width="2.6667" d="M30.333 28.001l-6.283-5.8"></path>
</symbol>
<symbol id="icon-github" viewBox="0 0 32 32">
<path d="M16 0c-8.835 0-16 7.164-16 16 0 7.069 4.584 13.067 10.943 15.183 0.799 0.148 1.057-0.348 1.057-0.769v-2.979c-4.451 0.968-5.377-1.888-5.377-1.888-0.728-1.849-1.777-2.341-1.777-2.341-1.452-0.993 0.111-0.972 0.111-0.972 1.607 0.112 2.452 1.649 2.452 1.649 1.427 2.445 3.743 1.739 4.656 1.329 0.143-1.033 0.557-1.74 1.016-2.139-3.553-0.407-7.289-1.779-7.289-7.908 0-1.748 0.625-3.175 1.648-4.295-0.165-0.404-0.713-2.032 0.156-4.235 0 0 1.344-0.429 4.401 1.64 1.276-0.355 2.644-0.532 4.004-0.539 1.36 0.007 2.729 0.184 4.008 0.539 3.055-2.069 4.396-1.64 4.396-1.64 0.871 2.204 0.323 3.832 0.157 4.235 1.027 1.12 1.647 2.548 1.647 4.295 0 6.145-3.743 7.499-7.305 7.895 0.573 0.496 1.097 1.469 1.097 2.963v4.391c0 0.425 0.256 0.925 1.068 0.768 6.353-2.119 10.932-8.115 10.932-15.181 0-8.836-7.164-16-16-16z"></path>
</symbol>
<symbol id="icon-linkedin" viewBox="0 0 32 32">
<path d="M31.992 32h0.008v-11.738c0-5.741-1.237-10.163-7.947-10.163-3.227 0-5.392 1.77-6.277 3.45h-0.093v-2.914h-6.365v21.363h6.627v-10.578c0-2.786 0.528-5.48 3.978-5.48 3.398 0 3.448 3.179 3.448 5.658v10.402h6.621zM0.528 10.635h6.635v21.365h-6.635v-21.365zM3.843 0c-2.123 0-3.843 1.721-3.843 3.843v0c0 2.12 1.722 3.878 3.843 3.878 2.12 0 3.842-1.757 3.842-3.878s-1.72-3.841-3.841-3.843h-0z"></path>
</symbol>
<symbol id="icon-list-type" viewBox="0 0 32 32">
<path d="M3.429 12.572c-0.953 0-1.762 0.333-2.429 1s-1 1.476-1 2.428c0 0.952 0.333 1.762 1 2.429s1.476 1 2.429 1c0.952 0 1.762-0.333 2.429-1s1-1.476 1-2.429c0-0.953-0.333-1.762-1-2.429s-1.476-1-2.429-1z"></path>
<path d="M3.429 3.429c-0.953 0-1.762 0.333-2.429 1s-1 1.476-1 2.429c0 0.952 0.333 1.762 1 2.429s1.476 1 2.429 1c0.952 0 1.762-0.333 2.429-1s1-1.476 1-2.429c0-0.952-0.333-1.762-1-2.429s-1.476-1-2.429-1z"></path>
<path d="M3.429 21.715c-0.953 0-1.762 0.333-2.429 1s-1 1.476-1 2.429c0 0.953 0.333 1.762 1 2.429s1.476 1 2.429 1c0.952 0 1.762-0.333 2.429-1s1-1.476 1-2.429c0-0.952-0.333-1.762-1-2.429s-1.476-1-2.429-1z"></path>
<path d="M31.831 4.741c-0.113-0.113-0.247-0.169-0.402-0.169h-21.714c-0.155 0-0.289 0.056-0.402 0.169s-0.17 0.247-0.17 0.402v3.429c0 0.155 0.057 0.288 0.17 0.402s0.247 0.169 0.402 0.169h21.714c0.155 0 0.289-0.056 0.402-0.169s0.169-0.247 0.169-0.402v-3.429c-0-0.155-0.057-0.289-0.169-0.402z"></path>
<path d="M31.429 13.714h-21.714c-0.155 0-0.289 0.056-0.402 0.17s-0.17 0.247-0.17 0.402v3.429c0 0.155 0.057 0.289 0.17 0.402s0.247 0.17 0.402 0.17h21.714c0.155 0 0.289-0.056 0.402-0.17s0.169-0.247 0.169-0.402v-3.429c0-0.155-0.056-0.289-0.169-0.402s-0.247-0.17-0.402-0.17z"></path>
<path d="M31.429 22.857h-21.714c-0.155 0-0.289 0.056-0.402 0.17s-0.17 0.247-0.17 0.402v3.429c0 0.155 0.057 0.289 0.17 0.402s0.247 0.169 0.402 0.169h21.714c0.155 0 0.289-0.056 0.402-0.169s0.169-0.247 0.169-0.402v-3.429c0-0.155-0.056-0.289-0.169-0.402s-0.247-0.17-0.402-0.17z"></path>
</symbol>
<symbol id="icon-desc-type" viewBox="0 0 32 32">
<path d="M16 3.39c-1.364 0-2.527 0.475-3.484 1.432s-1.432 2.114-1.432 3.484c0 1.364 0.475 2.527 1.432 3.484s2.114 1.432 3.484 1.432c1.364 0 2.527-0.475 3.484-1.432s1.432-2.114 1.432-3.484c0-1.364-0.475-2.527-1.432-3.484-0.957-0.951-2.114-1.432-3.484-1.432z"></path>
<path d="M27.259 16.563c-0.113-0.113-0.244-0.169-0.4-0.169h-21.717c-0.156 0-0.288 0.056-0.4 0.169s-0.169 0.244-0.169 0.4v3.428c0 0.156 0.056 0.288 0.169 0.4s0.25 0.169 0.4 0.169h21.717c0.156 0 0.288-0.056 0.4-0.169s0.169-0.244 0.169-0.4v-3.428c0-0.15-0.056-0.288-0.169-0.4z"></path>
<path d="M27.259 23.030c-0.113-0.113-0.244-0.169-0.4-0.169h-21.717c-0.156 0-0.288 0.056-0.4 0.169s-0.169 0.244-0.169 0.4v3.428c0 0.156 0.056 0.288 0.169 0.4s0.25 0.169 0.4 0.169h21.717c0.156 0 0.288-0.056 0.4-0.169s0.169-0.244 0.169-0.4v-3.428c0-0.156-0.056-0.288-0.169-0.4z"></path>
</symbol>

</defs>
</svg>
