<svg aria-hidden="true" style="position: absolute; width: 0; height: 0; overflow: hidden;" version="1.1" xmlns="http://www.w3.org/2000/svg" xmlns:xlink="http://www.w3.org/1999/xlink">
<defs>
<symbol id="icon-free-icon-film-strip-with-two-photograms-25311" viewBox="0 0 32 32">
<path d="M31.216 2.917c-0.522-0.522-1.15-0.783-1.883-0.783h-26.666c-0.733 0-1.361 0.261-1.883 0.783s-0.783 1.15-0.783 1.883v22.4c0 0.733 0.261 1.361 0.783 1.883s1.15 0.783 1.883 0.783h26.667c0.733 0 1.361-0.261 1.883-0.783s0.784-1.15 0.784-1.883v-22.4c0-0.733-0.261-1.361-0.784-1.883zM6.4 26.667c0 0.289-0.105 0.539-0.316 0.75s-0.461 0.317-0.75 0.317h-2.133c-0.289 0-0.539-0.106-0.75-0.317s-0.317-0.461-0.317-0.75v-2.133c0-0.289 0.106-0.539 0.317-0.75s0.461-0.317 0.75-0.317h2.133c0.289 0 0.539 0.106 0.75 0.317s0.317 0.461 0.317 0.75v2.133zM6.4 20.267c0 0.289-0.105 0.539-0.316 0.75s-0.461 0.317-0.75 0.317h-2.133c-0.289 0-0.539-0.106-0.75-0.317s-0.317-0.461-0.317-0.75v-2.134c0-0.289 0.106-0.539 0.317-0.75s0.461-0.317 0.75-0.317h2.133c0.289 0 0.539 0.106 0.75 0.317s0.317 0.461 0.317 0.75v2.134zM6.4 13.867c0 0.289-0.105 0.539-0.316 0.75s-0.461 0.317-0.75 0.317h-2.133c-0.289 0-0.539-0.106-0.75-0.317s-0.317-0.461-0.317-0.75v-2.133c0-0.289 0.106-0.539 0.317-0.75s0.461-0.317 0.75-0.317h2.133c0.289 0 0.539 0.106 0.75 0.317s0.317 0.461 0.317 0.75v2.133zM6.4 7.467c0 0.289-0.105 0.539-0.316 0.75s-0.461 0.317-0.75 0.317h-2.133c-0.289 0-0.539-0.106-0.75-0.317s-0.317-0.461-0.317-0.75v-2.133c0-0.289 0.106-0.539 0.317-0.75s0.461-0.317 0.75-0.317h2.133c0.289 0 0.539 0.106 0.75 0.317s0.317 0.461 0.317 0.75v2.133zM23.467 26.667c0 0.289-0.105 0.539-0.317 0.75s-0.461 0.317-0.75 0.317h-12.8c-0.289 0-0.539-0.106-0.75-0.317s-0.317-0.461-0.317-0.75v-8.533c0-0.288 0.106-0.539 0.317-0.75s0.461-0.317 0.75-0.317h12.8c0.289 0 0.539 0.106 0.75 0.317s0.317 0.461 0.317 0.75v8.533h-0zM23.467 13.867c0 0.289-0.105 0.539-0.317 0.75s-0.461 0.317-0.75 0.317h-12.8c-0.289 0-0.539-0.106-0.75-0.317s-0.317-0.461-0.317-0.75v-8.533c0-0.289 0.106-0.539 0.317-0.75s0.461-0.317 0.75-0.317h12.8c0.289 0 0.539 0.106 0.75 0.317s0.317 0.461 0.317 0.75v8.533h-0zM29.866 26.667c0 0.289-0.105 0.539-0.316 0.75s-0.461 0.317-0.75 0.317h-2.133c-0.289 0-0.539-0.106-0.75-0.317s-0.317-0.461-0.317-0.75v-2.133c0-0.289 0.105-0.539 0.317-0.75s0.461-0.317 0.75-0.317h2.133c0.289 0 0.539 0.106 0.75 0.317s0.316 0.461 0.316 0.75v2.133zM29.866 20.267c0 0.289-0.105 0.539-0.316 0.75s-0.461 0.317-0.75 0.317h-2.133c-0.289 0-0.539-0.106-0.75-0.317s-0.317-0.461-0.317-0.75v-2.134c0-0.289 0.105-0.539 0.317-0.75s0.461-0.317 0.75-0.317h2.133c0.289 0 0.539 0.106 0.75 0.317s0.316 0.461 0.316 0.75v2.134zM29.866 13.867c0 0.289-0.105 0.539-0.316 0.75s-0.461 0.317-0.75 0.317h-2.133c-0.289 0-0.539-0.106-0.75-0.317s-0.317-0.461-0.317-0.75v-2.133c0-0.289 0.105-0.539 0.317-0.75s0.461-0.317 0.75-0.317h2.133c0.289 0 0.539 0.106 0.75 0.317s0.316 0.461 0.316 0.75v2.133zM29.866 7.467c0 0.289-0.105 0.539-0.316 0.75s-0.461 0.317-0.75 0.317h-2.133c-0.289 0-0.539-0.105-0.75-0.317s-0.317-0.461-0.317-0.75v-2.133c0-0.289 0.105-0.539 0.317-0.75s0.461-0.317 0.75-0.317h2.133c0.289 0 0.539 0.106 0.75 0.317s0.316 0.461 0.316 0.75v2.133z"></path>
</symbol>
</defs>
</svg>
